<svg xmlns="http://www.w3.org/2000/svg" viewBox="0 0 16 16">
  <g fill="#4D666A" fill-rule="nonzero">
    <path d="M11.584 0H4.415A4.42 4.42 0 0 0 0 4.415v7.17A4.42 4.42 0 0 0 4.415 16h7.17A4.42 4.42 0 0 0 16 11.585v-7.17A4.42 4.42 0 0 0 11.584 0zm2.996 11.585a3 3 0 0 1-2.995 2.995h-7.17a3 3 0 0 1-2.995-2.995v-7.17A3 3 0 0 1 4.415 1.42h7.17a3 3 0 0 1 2.995 2.995v7.17z"/>
    <path d="M8 3.81C5.69 3.81 3.81 5.69 3.81 8c0 2.31 1.88 4.19 4.19 4.19 2.31 0 4.19-1.88 4.19-4.19 0-2.31-1.88-4.19-4.19-4.19zm0 6.937A2.75 2.75 0 0 1 5.252 8 2.75 2.75 0 0 1 8 5.252 2.75 2.75 0 0 1 10.748 8 2.75 2.75 0 0 1 8 10.747zM12.571 3.048A1.147 1.147 0 0 0 11.43 4.19c0 .3.122.596.335.809.212.212.507.334.807.334.302 0 .596-.122.809-.334a1.148 1.148 0 0 0 0-1.617 1.148 1.148 0 0 0-.809-.334z"/>
  </g>
</svg>
