<svg xmlns="http://www.w3.org/2000/svg" viewBox="0 0 21 21">
  <path fill="#FFF" fill-rule="evenodd" d="M14.538 8.885c0-1.557-.553-2.888-1.66-3.995-1.105-1.106-2.437-1.66-3.993-1.66-1.557 0-2.888.554-3.995 1.66-1.106 1.107-1.66 2.438-1.66 3.995 0 1.556.554 2.888 1.66 3.994 1.107 1.106 2.438 1.66 3.995 1.66 1.556 0 2.888-.554 3.994-1.66 1.106-1.106 1.66-2.438 1.66-3.994zM21 19.385c0 .437-.16.816-.48 1.135-.32.32-.698.48-1.135.48a1.5 1.5 0 0 1-1.136-.48l-4.329-4.316c-1.506 1.044-3.184 1.565-5.035 1.565a8.73 8.73 0 0 1-3.452-.7 8.883 8.883 0 0 1-2.84-1.893A8.883 8.883 0 0 1 .7 12.336 8.73 8.73 0 0 1 0 8.885a8.73 8.73 0 0 1 .7-3.452 8.883 8.883 0 0 1 1.893-2.84A8.883 8.883 0 0 1 5.433.7 8.73 8.73 0 0 1 8.885 0a8.73 8.73 0 0 1 3.451.7 8.883 8.883 0 0 1 2.84 1.893 8.883 8.883 0 0 1 1.893 2.84 8.73 8.73 0 0 1 .7 3.452c0 1.85-.521 3.53-1.565 5.035l4.33 4.329c.31.311.466.69.466 1.136z"/>
</svg>
