<svg xmlns="http://www.w3.org/2000/svg" viewBox="0 0 16 16">
  <path fill="#4D666A" fill-rule="nonzero" d="M14.927 3.984a7.966 7.966 0 0 0-2.911-2.911A7.825 7.825 0 0 0 8 0C6.55 0 5.21.358 3.985 1.073a7.964 7.964 0 0 0-2.912 2.911A7.825 7.825 0 0 0 0 8c0 1.451.358 2.79 1.073 4.016a7.968 7.968 0 0 0 2.911 2.911A7.826 7.826 0 0 0 8 16c1.451 0 2.79-.358 4.016-1.073a7.964 7.964 0 0 0 2.911-2.911A7.827 7.827 0 0 0 16 8c0-1.451-.358-2.79-1.073-4.016zM9.001 12.21c-.07-.083-.094-.153-.073-.208-.007.034-.031.066-.073.093a.993.993 0 0 0-.188-.156.983.983 0 0 1-.187-.156 4.454 4.454 0 0 1-.151-.24 1.05 1.05 0 0 1-.083-.161c-.018-.046-.02-.072-.006-.078-.131.055-.322.017-.572-.115a1.025 1.025 0 0 1-.22-.219c-.096-.118-.197-.17-.301-.156-.035.007-.082.019-.14.036a.545.545 0 0 1-.152.026.475.475 0 0 1-.167-.041c-.055-.021-.13-.061-.224-.12a1.493 1.493 0 0 0-.192-.11l-.136-.072-.166-.083a.512.512 0 0 1-.13-.1.33.33 0 0 1-.089-.14 2.006 2.006 0 0 1-.052-.25.778.778 0 0 0-.083-.27.939.939 0 0 0-.177-.21c-.077-.068-.146-.103-.209-.103.056 0 .056-.047 0-.141a1.055 1.055 0 0 0-.146-.203 13.044 13.044 0 0 1-.302-.334.833.833 0 0 1-.125-.192c-.034-.073-.041-.134-.02-.183.006-.007 0-.017-.021-.03a.54.54 0 0 0-.079-.043 1.79 1.79 0 0 0-.088-.036.205.205 0 0 0-.063-.016c.014.028.03.079.047.151a.6.6 0 0 0 .058.162c.014.028.073.129.177.302.18.292.264.507.25.646-.042.014-.07.007-.084-.02a.38.38 0 0 1-.03-.115.655.655 0 0 0-.022-.104c-.02-.042-.074-.087-.161-.136-.087-.049-.141-.097-.162-.146a.049.049 0 0 0 .026-.01.05.05 0 0 1 .026-.01c.007-.063-.029-.143-.109-.24s-.113-.167-.099-.209c-.055-.041-.104-.123-.146-.244a.919.919 0 0 0-.104-.235.446.446 0 0 0-.104-.11 2.055 2.055 0 0 0-.156-.103 4.542 4.542 0 0 1-.125-.078.401.401 0 0 1-.084-.094c-.229-.278-.298-.427-.208-.448-.09.02-.165-.047-.224-.203-.059-.156-.078-.276-.057-.36l-.021-.01c.007-.028.01-.11.01-.245s.01-.259.026-.37c.018-.11.05-.166.1-.166-.05.007-.086-.037-.11-.13-.024-.094-.026-.159-.005-.193.007-.021.038-.007.094.041.055.049.086.08.093.094.09-.049.125-.111.104-.187a1.43 1.43 0 0 0-.218-.22c-.299-.194-.452-.287-.459-.28.042-.077.032-.143-.03-.198-.07.041-.11.052-.12.03a.403.403 0 0 1-.027-.114c-.007-.055-.024-.086-.052-.093-.035-.007-.076-.035-.125-.084a6.574 6.574 0 0 1 2.448-2.312c.042-.007.118-.01.23-.01a.416.416 0 0 1 .155.051.822.822 0 0 1 .151.115c.053.048.092.083.12.104.014-.042-.003-.104-.052-.187.014-.042.09-.084.23-.125.159-.021.263-.018.312.01a2.74 2.74 0 0 0-.209-.26l-.052.052c-.055-.049-.2-.025-.437.072a3.69 3.69 0 0 0-.104.058c-.056.03-.101.054-.136.067a.257.257 0 0 1-.125.01c.334-.18.66-.322.98-.426.02.013.055.043.104.088.048.045.086.078.114.1-.02-.015-.035-.008-.041.02-.028.083-.028.153 0 .208a.194.194 0 0 0 .14.084c.06.006.13.003.214-.01.083-.015.139-.022.166-.022l.105.01c.222.022.309 0 .26-.062.02.028.045.085.073.172.028.087.059.148.094.183.034-.028.041-.077.02-.146-.02-.07-.02-.119 0-.146.007-.014.028-.028.063-.042l.12-.047c.045-.017.074-.03.088-.036.042-.028.014-.077-.083-.146a.711.711 0 0 0-.088-.031 1.497 1.497 0 0 1-.12-.042.662.662 0 0 1-.11-.057c-.038-.025-.055-.052-.052-.084a.282.282 0 0 1 .058-.12c.041-.034.11-.048.203-.041a.516.516 0 0 1 .213.052c.188.104.216.198.084.281.07.007.153.035.25.083.097.05.135.101.114.157.056-.104.111-.157.167-.157.035.007.068.054.099.141s.05.134.057.14c.056.077.111.095.167.053a.879.879 0 0 0 .172-.182c.059-.08.092-.117.099-.11-.07-.027-.077-.055-.021-.083.104-.063.198-.08.281-.052.02.014.049.045.083.094.063.125.052.184-.031.177a.227.227 0 0 1 .078.208c-.01.083-.064.122-.162.115a.37.37 0 0 1-.15-.052.468.468 0 0 0-.152-.058c-.035-.003-.083.016-.146.058a1.318 1.318 0 0 0-.109.177.797.797 0 0 1-.12.177c-.104.104-.278.142-.52.114.02 0 .018.021-.006.063a2.117 2.117 0 0 1-.172.23.531.531 0 0 0-.125.239c0 .013-.003.06-.01.14a.524.524 0 0 1-.042.182c.083-.02.15.021.198.125.041.098.041.15 0 .157.229-.035.43-.021.604.042.25.09.393.18.427.27.042-.062.143-.066.302-.01.063.035.118.139.167.312a.673.673 0 0 0 .14.271c.067.076.138.097.214.063l.031-.021a.976.976 0 0 0 .068-.037.44.44 0 0 0 .057-.041c.021-.018.033-.033.037-.047.003-.014-.002-.028-.016-.042a.376.376 0 0 1-.11-.172.22.22 0 0 1 .017-.192.696.696 0 0 1 .166-.125c.09-.056.146-.112.167-.167.028-.09-.007-.165-.104-.224-.097-.06-.146-.113-.146-.162 0-.034.022-.076.068-.125.045-.048.064-.094.057-.135a.506.506 0 0 0-.037-.13.717.717 0 0 1-.041-.146c-.004-.032.012-.068.047-.11.048-.027.163-.026.343.005.18.032.299.065.355.1.02.013.066.034.135.062.07.028.13.057.182.088.052.032.082.061.089.089h-.052a.25.25 0 0 1 .088.146c.01.056-.015.097-.078.125a.328.328 0 0 1 .167.031c.111.042.115.08.01.115a.668.668 0 0 1 .089-.021.293.293 0 0 0 .14-.068.172.172 0 0 1 .047-.031.333.333 0 0 1 .047-.01.085.085 0 0 1 .062.015c.007 0 .023-.017.047-.052.024-.035.05-.07.078-.104.028-.035.052-.052.073-.052.02 0 .04.009.057.026a.219.219 0 0 1 .042.057l.031.068a1.1 1.1 0 0 0 .026.057.277.277 0 0 0 .099.11.28.28 0 0 1 .099.109c.007.02.02.073.041.156.021.084.05.14.084.172a.407.407 0 0 0 .156.078c.014.007.045.004.094-.01a.25.25 0 0 1 .12-.01c.03.006.046.034.046.083.042-.042.063-.07.063-.084a.44.44 0 0 0 .068.22c.038.055.098.079.182.072l-.021.23c-.02.034-.073.06-.156.077a.57.57 0 0 0-.157.047.719.719 0 0 0-.15.125c-.08.077-.113.122-.1.136-.118-.132-.295-.17-.53-.115-.265.042-.445.083-.543.125a.758.758 0 0 0-.229.156.328.328 0 0 0-.036.073c-.017.042-.035.08-.052.115-.018.034-.033.052-.047.052.042-.007.089-.04.14-.1a.603.603 0 0 1 .1-.098c.18-.118.33-.16.448-.124.153.041.177.097.073.167-.014.013-.05.019-.11.015a.375.375 0 0 0-.12.005.55.55 0 0 1 .157.058c.042.024.052.057.031.098.111.063.132.132.063.209a.377.377 0 0 1-.323.114c.021 0 .021.014 0 .042l-.177.115a2.197 2.197 0 0 1-.136.052.354.354 0 0 0-.156.093.208.208 0 0 0-.031.126.553.553 0 0 1-.01.125c-.007.028-.035.034-.084.02-.02.042-.085.075-.192.1-.108.024-.18.06-.214.109.042.055.038.11-.01.166-.084.07-.157.063-.22-.02-.034.013-.06.048-.077.104-.018.055-.044.094-.078.114.048.077.041.132-.021.167.007 0 .022.007.047.02.024.015.05.032.078.053.028.02.045.031.052.031-.028.063-.066.094-.115.094.042.111-.01.233-.156.364a.478.478 0 0 1-.13.084c-.06.028-.113.05-.162.067a.34.34 0 0 0-.083.037.706.706 0 0 0-.156.193.225.225 0 0 0-.016.192c.024.063.088.105.193.125l.01.084v.187l.01.084a1.034 1.034 0 0 1 .016.276c-.003.059-.019.092-.047.099-.027.007-.066 0-.114-.021-.056-.028-.122-.18-.198-.459a.695.695 0 0 0-.126-.25.314.314 0 0 1-.088.068c-.024.01-.042.012-.052.005a.686.686 0 0 1-.057-.047.696.696 0 0 0-.073-.057.553.553 0 0 0-.182-.052c-.087-.014-.141-.031-.162-.052-.167.126-.267.094-.302-.093-.014.034-.012.081.005.14a.817.817 0 0 1 .026.1c-.048.09-.125.096-.229.02-.041-.041-.137-.047-.286-.016-.15.032-.249.037-.297.016.007 0 .02.01.042.031.02.014.034.024.041.031a.131.131 0 0 1-.031.063c-.014.014-.028.019-.042.016a.106.106 0 0 0-.047 0 .176.176 0 0 0-.047.015.643.643 0 0 0-.104.11.518.518 0 0 1-.093.098c.041.111.06.196.057.255-.004.06-.014.146-.031.26a1.925 1.925 0 0 0-.027.277c0 .11.033.24.1.385a.66.66 0 0 0 .234.302.616.616 0 0 0 .25.052c.118.007.201 0 .25-.02a.256.256 0 0 0 .093-.073.352.352 0 0 0 .053-.12c.013-.052.024-.089.03-.11.05-.131.14-.2.271-.208.084-.007.145.002.183.026.038.025.054.057.047.1a.524.524 0 0 1-.042.13 2.2 2.2 0 0 1-.078.15.576.576 0 0 0-.057.126 1.736 1.736 0 0 0-.036.234c-.01.1-.02.162-.027.183.014.006.066.01.157.01 0-.014.005-.037.015-.068a.296.296 0 0 0 .016-.057c.035.056.09.087.167.094.076.007.132-.021.166-.084.014.021.056.073.126.157a.45.45 0 0 1 .114.208c.007.028.02.073.042.136.02.062.028.106.02.13-.006.024-.041.036-.104.036-.027 0-.045.01-.052.032a.142.142 0 0 0 0 .078.7.7 0 0 0 .068.177c.018.03.026.05.026.057.125.229.295.291.51.187 0 .202-.048.313-.146.334-.054.013-.117-.022-.186-.105zm.155 2.353a.834.834 0 0 1-.02-.166c-.007-.056.018-.13.073-.224a.482.482 0 0 0 .083-.213c-.11-.028-.152-.118-.125-.271.014-.104.115-.243.302-.417.132-.118.174-.285.125-.5a2.88 2.88 0 0 1-.052-.396 3.544 3.544 0 0 0-.042-.364c0 .02.033.04.1.057.066.017.105.04.12.067a.63.63 0 0 0 .051-.114.53.53 0 0 1 .063-.125.355.355 0 0 1 .088-.079c.045-.03.075-.05.089-.057a.798.798 0 0 0 .093-.067c.049-.039.089-.068.12-.089a.346.346 0 0 1 .125-.046c.052-.01.089.005.11.046.034.042.027.106-.021.193-.049.087-.049.148 0 .183a.777.777 0 0 0 .02-.136.252.252 0 0 1 .063-.157.237.237 0 0 1 .12-.072.148.148 0 0 1 .104.015.926.926 0 0 1 .11.073c.04.031.08.05.114.057.104.035.23.111.375.23-.007-.008-.007-.016 0-.027a.11.11 0 0 1 .042-.03.78.78 0 0 0 .057-.032.292.292 0 0 1 .057-.026l.031-.01a.358.358 0 0 0 .104-.01c.02-.008.05 0 .089.02a.71.71 0 0 1 .15.104c.035.028.06.049.073.063l.115.072.13.084c.032.02.06.052.083.093a.205.205 0 0 1 .027.136c.041.007.124.034.25.083a.374.374 0 0 0 .13.036c.066.01.11.027.13.047a6.439 6.439 0 0 1-3.656 1.97z"/>
</svg>
