<svg xmlns="http://www.w3.org/2000/svg" viewBox="0 0 29 29">
  <g fill="none" fill-rule="nonzero">
    <path fill="#4D666A" d="M9.671 11.057l-.004-.01zM5.524 18.104v.004l.032-.156zM12.429 13.975l.004-.022.03-.143zM13.81 22.119l.004-.015.003-.009zM20.024 11.048a2.071 2.071 0 1 0 0 4.142 2.071 2.071 0 0 0 0-4.142zm0 3.107a1.037 1.037 0 0 1-1.036-1.036 1.037 1.037 0 0 1 2.071 0c0 .571-.464 1.036-1.035 1.036z"/>
    <g fill="#4D666A">
      <path d="M14.5 0c-2.186 0-4.254.49-6.112 1.357A4.99 4.99 0 0 0 4.96 0C2.225 0 0 2.183 0 4.865c0 1.009.617 2.28 1.38 3.469A14.434 14.434 0 0 0 0 14.5C0 22.508 6.49 29 14.5 29S29 22.508 29 14.5 22.509 0 14.5 0zM1.145 4.865c0-2.055 1.709-3.72 3.816-3.72 2.107 0 3.815 1.665 3.815 3.72s-3.815 6.2-3.815 6.2-3.816-4.145-3.816-6.2zm0 9.635c0-1.79.357-3.497.998-5.058a29.75 29.75 0 0 0 1.975 2.399l.843.915.842-.915c.688-.747 4.118-4.596 4.118-6.976 0-.955-.286-1.843-.772-2.595.92-.404 1.893-.709 2.906-.897l-.31.557c-.15.272-.206.564-.208.851.003.362.088.728.313 1.049l.87 1.222c.048.065.111.198.153.347.043.15.067.315.066.444 0 .06-.005.11-.011.147l-.226 1.23a.966.966 0 0 1-.19.377.972.972 0 0 1-.317.278l-1.53.706a1.34 1.34 0 0 0-.654 1.773l.646 1.407c.033.072.072.196.097.335.026.14.04.293.04.432 0 .122-.011.234-.028.305l-.007.031-.176.764a1.194 1.194 0 0 1-.215.41 1.195 1.195 0 0 1-.34.315l-1.132.6a.745.745 0 0 1-.328.066.818.818 0 0 1-.409-.097l-.925-.596a1.834 1.834 0 0 0-.984-.269c-.31.002-.626.064-.915.234l-.927.548c-.178.105-.328.25-.433.424a1.123 1.123 0 0 0-.162.578c-.001.305.129.604.345.827l.518.54a.865.865 0 0 1 .163.286c.047.128.073.274.072.383a.59.59 0 0 1-.01.118l-.104.495a1.902 1.902 0 0 1-.213.508c-.106.187-.243.36-.333.44l-.469.42c-.312.281-.715.702-1.003 1.041a13.299 13.299 0 0 1-1.634-6.4zm9.595 10.558l-.6 2.063a13.416 13.416 0 0 1-6.73-5.187l.167-.207c.226-.28.692-.769.971-1.018l.47-.42c.222-.202.404-.45.56-.72.154-.27.278-.552.342-.845l.104-.501c.023-.115.033-.23.033-.346 0-.267-.052-.529-.142-.777a1.957 1.957 0 0 0-.41-.684l-.52-.542-.02-.028.027-.022.927-.549a.691.691 0 0 1 .332-.073.723.723 0 0 1 .365.087l.924.595c.32.202.675.276 1.028.279a1.86 1.86 0 0 0 .866-.2l1.13-.6c.288-.155.518-.376.713-.627a2.28 2.28 0 0 0 .422-.851l.185-.803c.04-.18.055-.365.056-.554 0-.213-.02-.43-.06-.64a2.59 2.59 0 0 0-.183-.605l-.646-1.408-.001-.001-.016-.076c0-.074.043-.148.11-.177l1.531-.707c.305-.143.544-.363.742-.615.195-.255.348-.541.411-.872l.226-1.23v-.002a1.99 1.99 0 0 0 .03-.35c0-.256-.04-.513-.11-.76a2.3 2.3 0 0 0-.322-.696l-.87-1.222v-.001a.707.707 0 0 1-.1-.383.636.636 0 0 1 .063-.294l.722-1.299c.342-.027.685-.045 1.033-.045 6.639 0 12.16 4.87 13.183 11.224l-.51-.284a2.611 2.611 0 0 0-.68-.249 3.333 3.333 0 0 0-.727-.084c-.131 0-.26.008-.39.031l-.106.019a5.728 5.728 0 0 0-5.046-3.026A5.73 5.73 0 0 0 14.5 14.5c0 1.929 1.894 4.717 3.354 6.58l-.874.982a1 1 0 0 1-.337.222c-.151.066-.321.102-.422.1l-.037-.001-1.668-.129-.042-.009h-.002v-.006l.005-.035.002-.004.297-.992c.042-.14.06-.282.06-.419 0-.271-.069-.531-.19-.766a1.54 1.54 0 0 0-.542-.6l-.67-.418a1.382 1.382 0 0 0-.735-.208c-.425 0-.85.185-1.131.556l-2.029 2.705a1.337 1.337 0 0 0 .267 1.87l.742.556c.041.03.1.099.14.19.043.088.066.196.065.278a.4.4 0 0 1-.013.106zM24.803 14.5c0 2.528-4.58 7.632-4.58 7.632s-4.578-5.104-4.578-7.632a4.578 4.578 0 1 1 9.158 0zM14.5 27.855c-1.125 0-2.218-.141-3.262-.405l.602-2.074c.04-.142.058-.284.058-.424a1.82 1.82 0 0 0-.17-.758 1.63 1.63 0 0 0-.493-.626l-.742-.556a.19.19 0 0 1-.075-.154c0-.042.011-.079.037-.113l2.029-2.705a.273.273 0 0 1 .215-.098c.052 0 .096.013.129.034l.669.418c.04.023.094.08.133.156.04.076.062.169.061.24a.322.322 0 0 1-.011.09l-.297.989a1.256 1.256 0 0 0-.056.37c-.001.294.112.586.316.796.202.213.486.34.785.361l1.669.129c.042.003.083.004.124.004.307-.001.6-.076.875-.194.275-.12.531-.28.74-.512l.747-.841c.35.419.631.738.79.914l.85.95.853-.95c.813-.907 4.872-5.572 4.872-8.396a5.7 5.7 0 0 0-.233-1.602l.05-.002c.143 0 .316.02.473.056.158.035.301.09.378.133l1.218.677c.014.244.022.49.022.738 0 7.364-5.992 13.355-13.356 13.355zM5.334 14.292l.002-.001z"/>
    </g>
    <path fill="#4D666A" d="M4.833 2.762a2.07 2.07 0 1 0 2.072 2.071 2.071 2.071 0 0 0-2.072-2.071zm0 2.9a.829.829 0 1 1 .001-1.658.829.829 0 0 1-.001 1.658z"/>
  </g>
</svg>
