<svg xmlns="http://www.w3.org/2000/svg" viewBox="0 0 231 45">
  <path fill="#FFF" fill-rule="evenodd" d="M20.54 34.46c0 1.32-.25 2.58-.75 3.78-.5 1.2-1.2 2.25-2.08 3.15-.88.9-1.9 1.6-3.1 2.15-1.17.54-2.44.8-3.8.8-1.16 0-2.34-.15-3.54-.47-1.2-.32-2.28-.87-3.24-1.65-.96-.78-1.75-1.8-2.37-3.1-.62-1.27-.93-2.9-.93-4.85V10.76c0-1.4.24-2.7.72-3.9.48-1.2 1.16-2.24 2.04-3.12.88-.88 1.93-1.57 3.15-2.07 1.22-.5 2.57-.75 4.05-.75 1.4 0 2.7.25 3.9.75 1.2.5 2.24 1.2 3.12 2.1.88.9 1.57 1.98 2.07 3.24.5 1.27.74 2.64.74 4.12v2.4h-6.12v-2.04c0-1.2-.34-2.24-1.02-3.12-.68-.88-1.6-1.32-2.76-1.32-1.52 0-2.53.47-3.03 1.4-.5.95-.74 2.14-.74 3.58v21.84c0 1.24.27 2.28.8 3.12.55.84 1.52 1.26 2.92 1.26.4 0 .83-.07 1.3-.2.45-.15.87-.38 1.25-.7.38-.32.7-.76.93-1.32.24-.56.36-1.26.36-2.1v-2.1h6.12v2.64zm9.66-14.1h3.48c1.08 0 1.94-.15 2.58-.45.64-.3 1.13-.72 1.47-1.28.34-.56.57-1.25.7-2.07.1-.82.17-1.77.17-2.85s-.06-2.03-.18-2.85c-.12-.82-.37-1.52-.75-2.1-.38-.58-.9-1-1.6-1.3-.67-.27-1.57-.4-2.7-.4H30.2v13.3zM24.08 1.28h9.84c7.2 0 10.8 4.18 10.8 12.54 0 2.48-.4 4.6-1.17 6.4-.78 1.77-2.15 3.2-4.1 4.28l6.6 19.5h-6.5l-5.7-18.24H30.2V44h-6.12V1.28zm24.3 0h6.1V44h-6.1V1.28zm30.4 12.3h-6.12V12.2c0-1.4-.33-2.6-1-3.63-.65-1.02-1.76-1.53-3.32-1.53-.84 0-1.53.16-2.07.48-.54.32-.96.73-1.26 1.23-.3.5-.5 1.08-.62 1.74-.12.65-.18 1.34-.18 2.06 0 .84.03 1.55.1 2.13.05.57.2 1.07.44 1.5.24.4.6.78 1.05 1.1.45.32 1.08.64 1.88.96l4.68 1.86c1.36.52 2.46 1.13 3.3 1.83.84.7 1.5 1.52 1.95 2.46.47.95.78 2.03.94 3.25.16 1.22.24 2.6.24 4.17 0 1.8-.18 3.47-.54 5-.36 1.55-.95 2.87-1.77 3.97-.82 1.1-1.9 1.96-3.27 2.6-1.36.64-3.02.96-4.98.96-1.48 0-2.86-.26-4.14-.78-1.28-.52-2.38-1.23-3.3-2.13-.92-.9-1.65-1.97-2.2-3.2-.53-1.25-.8-2.6-.8-4.03v-2.28h6.12v1.92c0 1.12.33 2.13 1 3.03.65.9 1.76 1.34 3.32 1.34 1.04 0 1.85-.15 2.43-.45.58-.3 1.02-.73 1.32-1.27.3-.54.5-1.2.57-2 .08-.8.12-1.7.12-2.65 0-1.12-.04-2.04-.12-2.76-.08-.72-.25-1.3-.5-1.74-.27-.44-.63-.8-1.1-1.08-.45-.28-1.06-.58-1.82-.9l-4.38-1.8c-2.64-1.08-4.4-2.5-5.3-4.3-.9-1.77-1.36-4-1.36-6.68 0-1.6.22-3.12.66-4.56.44-1.44 1.1-2.68 1.95-3.72.85-1.04 1.94-1.87 3.26-2.5 1.32-.6 2.86-.92 4.62-.92 1.52 0 2.9.28 4.17.84C74 2.32 75.1 3.06 76 3.98c.9.92 1.58 1.95 2.06 3.1.48 1.13.72 2.3.72 3.5v3zm3.3-12.3h6.1V44h-6.1V1.28zm30.4 12.3h-6.1V12.2c0-1.4-.34-2.6-1-3.63-.66-1.02-1.77-1.53-3.33-1.53-.84 0-1.53.16-2.07.48-.54.32-.96.73-1.26 1.23-.3.5-.5 1.08-.63 1.74-.13.65-.2 1.34-.2 2.06 0 .84.04 1.55.1 2.13.06.57.2 1.07.45 1.5.24.4.6.78 1.05 1.1.46.32 1.1.64 1.9.96l4.67 1.86c1.36.52 2.46 1.13 3.3 1.83.84.7 1.5 1.52 1.95 2.46.46.95.77 2.03.93 3.25.16 1.22.24 2.6.24 4.17 0 1.8-.2 3.47-.55 5-.36 1.55-.95 2.87-1.77 3.97-.82 1.1-1.9 1.96-3.27 2.6-1.35.64-3 .96-4.97.96-1.48 0-2.86-.26-4.14-.78-1.3-.52-2.4-1.23-3.3-2.13-.93-.9-1.66-1.97-2.2-3.2-.54-1.25-.8-2.6-.8-4.03v-2.28h6.1v1.92c0 1.12.34 2.13 1 3.03.66.9 1.77 1.34 3.33 1.34 1.04 0 1.85-.15 2.43-.45.58-.3 1.02-.73 1.32-1.27.3-.54.5-1.2.57-2 .08-.8.12-1.7.12-2.65 0-1.12-.04-2.04-.12-2.76-.08-.72-.25-1.3-.5-1.74-.27-.44-.63-.8-1.1-1.08-.45-.28-1.06-.58-1.82-.9l-4.38-1.8c-2.64-1.08-4.4-2.5-5.3-4.3-.9-1.77-1.36-4-1.36-6.68 0-1.6.2-3.12.65-4.56.44-1.44 1.1-2.68 1.95-3.72.86-1.04 1.95-1.87 3.27-2.5 1.32-.6 2.86-.92 4.62-.92 1.5 0 2.9.28 4.16.84 1.26.56 2.34 1.3 3.24 2.22.9.92 1.6 1.95 2.07 3.1.48 1.13.72 2.3.72 3.5v3zm2.76 24.3h6.12V44h-6.12v-6.12zm0-13.62h6.12v6.12h-6.12v-6.12zM125.3 1.28h18.25v5.76h-12.12v12.54H142v5.76h-10.57v12.54h12.12V44H125.3V1.28zm30.13 12.3h-.12l-3 15.48h6.13l-3-15.48zm-2.58-12.3h5.1L167.5 44h-6.13l-1.8-9.18h-8.34l-1.8 9.18h-6.12l9.55-42.72zm22.3 19.08h3.5c1.07 0 1.93-.15 2.57-.45.64-.3 1.13-.72 1.47-1.28.33-.56.56-1.25.68-2.07.12-.82.18-1.77.18-2.85s-.06-2.03-.18-2.85c-.12-.82-.37-1.52-.75-2.1-.38-.58-.9-1-1.6-1.3-.67-.27-1.57-.4-2.7-.4h-3.17v13.3zm-6.1-19.08h9.83c7.2 0 10.8 4.18 10.8 12.54 0 2.48-.4 4.6-1.17 6.4-.77 1.77-2.14 3.2-4.1 4.28L191 44h-6.48l-5.7-18.24h-3.66V44h-6.12V1.28zm27.04 5.76H189V1.28h20.3v5.76h-7.1V44h-6.1V7.04zm14.44-5.76h6.12v18.3h7.56V1.28h6.12V44h-6.12V24.98h-7.56V44h-6.12V1.28z"/>
</svg>
