<?xml version="1.0" encoding="UTF-8"?>
<svg width="231px" height="45px" viewBox="0 0 231 45" version="1.1" xmlns="http://www.w3.org/2000/svg" xmlns:xlink="http://www.w3.org/1999/xlink">
    <!-- Generator: Sketch 46.2 (44496) - http://www.bohemiancoding.com/sketch -->
    <title>Title Label</title>
    <desc>Created with Sketch.</desc>
    <defs></defs>
    <g id="Page-1" stroke="none" stroke-width="1" fill="none" fill-rule="evenodd">
        <g id="v2" transform="translate(-158.000000, -315.000000)" fill="#FFFFFF">
            <g id="content" transform="translate(156.000000, 150.000000)">
                <g id="Group-3" transform="translate(0.000000, 166.000000)">
                    <g id="Group">
                        <path d="M22.5423521,33.46 C22.5423521,34.7800066 22.2923546,36.039994 21.7923521,37.24 C21.2923496,38.440006 20.6023565,39.4899955 19.7223521,40.39 C18.8423477,41.2900045 17.812358,42.0099973 16.6323521,42.55 C15.4523462,43.0900027 14.1823589,43.36 12.8223521,43.36 C11.6623463,43.36 10.4823581,43.2000016 9.28235207,42.88 C8.08234607,42.5599984 7.00235687,42.0100039 6.04235207,41.23 C5.08234727,40.4499961 4.29235517,39.4200064 3.67235207,38.14 C3.05234897,36.8599936 2.74235207,35.2400098 2.74235207,33.28 L2.74235207,9.76 C2.74235207,8.359993 2.98234967,7.060006 3.46235207,5.86 C3.94235447,4.659994 4.62234767,3.6200044 5.50235207,2.74 C6.38235647,1.8599956 7.43234597,1.1700025 8.65235207,0.67 C9.87235817,0.1699975 11.2223447,-0.08 12.7023521,-0.08 C14.1023591,-0.08 15.4023461,0.1699975 16.6023521,0.67 C17.8023581,1.1700025 18.8423477,1.8699955 19.7223521,2.77 C20.6023565,3.6700045 21.2923496,4.7499937 21.7923521,6.01 C22.2923546,7.2700063 22.5423521,8.6399926 22.5423521,10.12 L22.5423521,12.52 L16.4223521,12.52 L16.4223521,10.48 C16.4223521,9.279994 16.0823555,8.2400044 15.4023521,7.36 C14.7223487,6.4799956 13.8023579,6.04 12.6423521,6.04 C11.1223445,6.04 10.1123546,6.5099953 9.61235207,7.45 C9.11234957,8.3900047 8.86235207,9.5799928 8.86235207,11.02 L8.86235207,32.86 C8.86235207,34.1000062 9.13234937,35.1399958 9.67235207,35.98 C10.2123548,36.8200042 11.1823451,37.24 12.5823521,37.24 C12.9823541,37.24 13.4123498,37.1700007 13.8723521,37.03 C14.3323544,36.8899993 14.7523502,36.6600016 15.1323521,36.34 C15.512354,36.0199984 15.8223509,35.5800028 16.0623521,35.02 C16.3023533,34.4599972 16.4223521,33.7600042 16.4223521,32.92 L16.4223521,30.82 L22.5423521,30.82 L22.5423521,33.46 Z M32.1952934,19.36 L35.6752934,19.36 C36.7552988,19.36 37.6152902,19.2100015 38.2552934,18.91 C38.8952966,18.6099985 39.3852917,18.1800028 39.7252934,17.62 C40.0652951,17.0599972 40.2952928,16.3700041 40.4152934,15.55 C40.535294,14.7299959 40.5952934,13.7800054 40.5952934,12.7 C40.5952934,11.6199946 40.535294,10.6700041 40.4152934,9.85 C40.2952928,9.0299959 40.0452953,8.3300029 39.6652934,7.75 C39.2852915,7.1699971 38.7552968,6.7400014 38.0752934,6.46 C37.39529,6.1799986 36.495299,6.04 35.3752934,6.04 L32.1952934,6.04 L32.1952934,19.36 Z M26.0752934,0.28 L35.9152934,0.28 C43.1153294,0.28 46.7152934,4.4599582 46.7152934,12.82 C46.7152934,15.3000124 46.3252973,17.4299911 45.5452934,19.21 C44.7652895,20.9900089 43.3953032,22.4199946 41.4352934,23.5 L48.0352934,43 L41.5552934,43 L35.8552934,24.76 L32.1952934,24.76 L32.1952934,43 L26.0752934,43 L26.0752934,0.28 Z M50.3682347,0.28 L56.4882347,0.28 L56.4882347,43 L50.3682347,43 L50.3682347,0.28 Z M80.781176,12.58 L74.661176,12.58 L74.661176,11.2 C74.661176,9.799993 74.3311793,8.5900051 73.671176,7.57 C73.0111727,6.5499949 71.9011838,6.04 70.341176,6.04 C69.5011718,6.04 68.8111787,6.1999984 68.271176,6.52 C67.7311733,6.8400016 67.3111775,7.2499975 67.011176,7.75 C66.7111745,8.2500025 66.5011766,8.8299967 66.381176,9.49 C66.2611754,10.1500033 66.201176,10.8399964 66.201176,11.56 C66.201176,12.4000042 66.2311757,13.1099971 66.291176,13.69 C66.3511763,14.2700029 66.5011748,14.7699979 66.741176,15.19 C66.9811772,15.6100021 67.3311737,15.9799984 67.791176,16.3 C68.2511783,16.6200016 68.881172,16.9399984 69.681176,17.26 L74.361176,19.12 C75.7211828,19.6400026 76.8211718,20.2499965 77.661176,20.95 C78.5011802,21.6500035 79.1511737,22.4699953 79.611176,23.41 C80.0711783,24.3500047 80.3811752,25.4299939 80.541176,26.65 C80.7011768,27.8700061 80.781176,29.2599922 80.781176,30.82 C80.781176,32.620009 80.6011778,34.2899923 80.241176,35.83 C79.8811742,37.3700077 79.2911801,38.6899945 78.471176,39.79 C77.6511719,40.8900055 76.5611828,41.7599968 75.201176,42.4 C73.8411692,43.0400032 72.1811858,43.36 70.221176,43.36 C68.7411686,43.36 67.3611824,43.1000026 66.081176,42.58 C64.8011696,42.0599974 63.7011806,41.3500045 62.781176,40.45 C61.8611714,39.5499955 61.1311787,38.4800062 60.591176,37.24 C60.0511733,35.9999938 59.781176,34.6600072 59.781176,33.22 L59.781176,30.94 L65.901176,30.94 L65.901176,32.86 C65.901176,33.9800056 66.2311727,34.9899955 66.891176,35.89 C67.5511793,36.7900045 68.6611682,37.24 70.221176,37.24 C71.2611812,37.24 72.0711731,37.0900015 72.651176,36.79 C73.2311789,36.4899985 73.6711745,36.0700027 73.971176,35.53 C74.2711775,34.9899973 74.4611756,34.320004 74.541176,33.52 C74.6211764,32.719996 74.661176,31.8400048 74.661176,30.88 C74.661176,29.7599944 74.6211764,28.8400036 74.541176,28.12 C74.4611756,27.3999964 74.2911773,26.8200022 74.031176,26.38 C73.7711747,25.9399978 73.4111783,25.5800014 72.951176,25.3 C72.4911737,25.0199986 71.8811798,24.7200016 71.121176,24.4 L66.741176,22.6 C64.1011628,21.5199946 62.3311805,20.0900089 61.431176,18.31 C60.5311715,16.5299911 60.081176,14.3000134 60.081176,11.62 C60.081176,10.019992 60.3011738,8.5000072 60.741176,7.06 C61.1811782,5.6199928 61.8311717,4.3800052 62.691176,3.34 C63.5511803,2.2999948 64.6411694,1.4700031 65.961176,0.85 C67.2811826,0.2299969 68.8211672,-0.08 70.581176,-0.08 C72.1011836,-0.08 73.4911697,0.1999972 74.751176,0.76 C76.0111823,1.3200028 77.0911715,2.0599954 77.991176,2.98 C78.8911805,3.9000046 79.5811736,4.9299943 80.061176,6.07 C80.5411784,7.2100057 80.781176,8.379994 80.781176,9.58 L80.781176,12.58 Z M84.0741174,0.28 L90.1941174,0.28 L90.1941174,43 L84.0741174,43 L84.0741174,0.28 Z M114.487059,12.58 L108.367059,12.58 L108.367059,11.2 C108.367059,9.799993 108.037062,8.5900051 107.377059,7.57 C106.717055,6.5499949 105.607066,6.04 104.047059,6.04 C103.207054,6.04 102.517061,6.1999984 101.977059,6.52 C101.437056,6.8400016 101.01706,7.2499975 100.717059,7.75 C100.417057,8.2500025 100.207059,8.8299967 100.087059,9.49 C99.9670581,10.1500033 99.9070587,10.8399964 99.9070587,11.56 C99.9070587,12.4000042 99.9370584,13.1099971 99.9970587,13.69 C100.057059,14.2700029 100.207057,14.7699979 100.447059,15.19 C100.68706,15.6100021 101.037056,15.9799984 101.497059,16.3 C101.957061,16.6200016 102.587055,16.9399984 103.387059,17.26 L108.067059,19.12 C109.427065,19.6400026 110.527054,20.2499965 111.367059,20.95 C112.207063,21.6500035 112.857056,22.4699953 113.317059,23.41 C113.777061,24.3500047 114.087058,25.4299939 114.247059,26.65 C114.407059,27.8700061 114.487059,29.2599922 114.487059,30.82 C114.487059,32.620009 114.30706,34.2899923 113.947059,35.83 C113.587057,37.3700077 112.997063,38.6899945 112.177059,39.79 C111.357055,40.8900055 110.267065,41.7599968 108.907059,42.4 C107.547052,43.0400032 105.887068,43.36 103.927059,43.36 C102.447051,43.36 101.067065,43.1000026 99.7870587,42.58 C98.5070523,42.0599974 97.4070633,41.3500045 96.4870587,40.45 C95.5670541,39.5499955 94.8370614,38.4800062 94.2970587,37.24 C93.757056,35.9999938 93.4870587,34.6600072 93.4870587,33.22 L93.4870587,30.94 L99.6070587,30.94 L99.6070587,32.86 C99.6070587,33.9800056 99.9370554,34.9899955 100.597059,35.89 C101.257062,36.7900045 102.367051,37.24 103.927059,37.24 C104.967064,37.24 105.777056,37.0900015 106.357059,36.79 C106.937062,36.4899985 107.377057,36.0700027 107.677059,35.53 C107.97706,34.9899973 108.167058,34.320004 108.247059,33.52 C108.327059,32.719996 108.367059,31.8400048 108.367059,30.88 C108.367059,29.7599944 108.327059,28.8400036 108.247059,28.12 C108.167058,27.3999964 107.99706,26.8200022 107.737059,26.38 C107.477057,25.9399978 107.117061,25.5800014 106.657059,25.3 C106.197056,25.0199986 105.587062,24.7200016 104.827059,24.4 L100.447059,22.6 C97.8070455,21.5199946 96.0370632,20.0900089 95.1370587,18.31 C94.2370542,16.5299911 93.7870587,14.3000134 93.7870587,11.62 C93.7870587,10.019992 94.0070565,8.5000072 94.4470587,7.06 C94.8870609,5.6199928 95.5370544,4.3800052 96.3970587,3.34 C97.257063,2.2999948 98.3470521,1.4700031 99.6670587,0.85 C100.987065,0.2299969 102.52705,-0.08 104.287059,-0.08 C105.807066,-0.08 107.197052,0.1999972 108.457059,0.76 C109.717065,1.3200028 110.797054,2.0599954 111.697059,2.98 C112.597063,3.9000046 113.287056,4.9299943 113.767059,6.07 C114.247061,7.2100057 114.487059,8.379994 114.487059,9.58 L114.487059,12.58 Z M117.24,36.88 L123.36,36.88 L123.36,43 L117.24,43 L117.24,36.88 Z M117.24,23.26 L123.36,23.26 L123.36,29.38 L117.24,29.38 L117.24,23.26 Z M127.312941,0.28 L145.552941,0.28 L145.552941,6.04 L133.432941,6.04 L133.432941,18.58 L143.992941,18.58 L143.992941,24.34 L133.432941,24.34 L133.432941,36.88 L145.552941,36.88 L145.552941,43 L127.312941,43 L127.312941,0.28 Z M157.425883,12.58 L157.305883,12.58 L154.305883,28.06 L160.425883,28.06 L157.425883,12.58 Z M154.845883,0.28 L159.945883,0.28 L169.485883,43 L163.365883,43 L161.565883,33.82 L153.225883,33.82 L151.425883,43 L145.305883,43 L154.845883,0.28 Z M177.158824,19.36 L180.638824,19.36 C181.718829,19.36 182.578821,19.2100015 183.218824,18.91 C183.858827,18.6099985 184.348822,18.1800028 184.688824,17.62 C185.028826,17.0599972 185.258823,16.3700041 185.378824,15.55 C185.498825,14.7299959 185.558824,13.7800054 185.558824,12.7 C185.558824,11.6199946 185.498825,10.6700041 185.378824,9.85 C185.258823,9.0299959 185.008826,8.3300029 184.628824,7.75 C184.248822,7.1699971 183.718827,6.7400014 183.038824,6.46 C182.358821,6.1799986 181.45883,6.04 180.338824,6.04 L177.158824,6.04 L177.158824,19.36 Z M171.038824,0.28 L180.878824,0.28 C188.07886,0.28 191.678824,4.4599582 191.678824,12.82 C191.678824,15.3000124 191.288828,17.4299911 190.508824,19.21 C189.72882,20.9900089 188.358834,22.4199946 186.398824,23.5 L192.998824,43 L186.518824,43 L180.818824,24.76 L177.158824,24.76 L177.158824,43 L171.038824,43 L171.038824,0.28 Z M198.091765,6.04 L191.011765,6.04 L191.011765,0.28 L211.291765,0.28 L211.291765,6.04 L204.211765,6.04 L204.211765,43 L198.091765,43 L198.091765,6.04 Z M212.544707,0.28 L218.664707,0.28 L218.664707,18.58 L226.224707,18.58 L226.224707,0.28 L232.344707,0.28 L232.344707,43 L226.224707,43 L226.224707,23.98 L218.664707,23.98 L218.664707,43 L212.544707,43 L212.544707,0.28 Z" id="Title-Label"></path>
                    </g>
                </g>
            </g>
        </g>
    </g>
</svg>